<svg xmlns="http://www.w3.org/2000/svg" viewBox="0 0 2446.3 360.22"><defs><style>.a{fill:#FFFFFF}.b{fill:#FFFFFF}.c{fill:#FFFFFF}</style></defs><path class="a" d="m718.36 313.23 5.81-27.1-11.67-44.29h11.72l7.62 32.62 21.19-32.62h13l-30.47 44.44-5.66 27ZM781.84 314.11a21.87 21.87 0 0 1-10.74-2.54 17.61 17.61 0 0 1-7.11-7.2 23.07 23.07 0 0 1-2.51-11.06 47.84 47.84 0 0 1 1.15-10.55 40.52 40.52 0 0 1 3.39-9.57 30.1 30.1 0 0 1 5.61-7.79 24.48 24.48 0 0 1 7.82-5.22 25.19 25.19 0 0 1 10-1.88 21.8 21.8 0 0 1 10.84 2.54 17.07 17.07 0 0 1 7 7.27 24.45 24.45 0 0 1 2.44 11.33 47.58 47.58 0 0 1-1.1 10.3 40.48 40.48 0 0 1-3.29 9.45 29.29 29.29 0 0 1-5.55 7.76 24.36 24.36 0 0 1-7.81 5.25 25.48 25.48 0 0 1-10.14 1.91Zm.83-9.38a10.8 10.8 0 0 0 5.1-1.24 13.76 13.76 0 0 0 4.27-3.57 21.84 21.84 0 0 0 3.25-5.51 34.87 34.87 0 0 0 2.08-7.11 45.14 45.14 0 0 0 .73-8.35 16.89 16.89 0 0 0-.88-5.54 8.77 8.77 0 0 0-2.9-4.15 8.52 8.52 0 0 0-5.4-1.59 10.93 10.93 0 0 0-5.54 1.44 14.92 14.92 0 0 0-4.45 4 25.19 25.19 0 0 0-3.24 5.84 36 36 0 0 0-2 7 41.39 41.39 0 0 0-.69 7.54c0 3.62.82 6.39 2.47 8.33s4.04 2.92 7.2 2.92ZM833.35 314.21a14.9 14.9 0 0 1-7.39-1.71 11 11 0 0 1-4.64-5 17.54 17.54 0 0 1-1.59-7.79 34.67 34.67 0 0 1 .32-4.42c.21-1.61.48-3.28.8-5l6.64-31.15h11.43l-7 32.81c-.23 1.27-.42 2.42-.56 3.44a19.52 19.52 0 0 0-.22 2.81 7.17 7.17 0 0 0 1.53 5 6.23 6.23 0 0 0 4.81 1.68 10.94 10.94 0 0 0 6.86-2.66 24.62 24.62 0 0 0 6.08-7.74 45.57 45.57 0 0 0 4.25-12.26l4.88-23h11.33l-11.42 54h-9l1.17-10.25h-.48a36.77 36.77 0 0 1-4.55 5.44 22 22 0 0 1-5.85 4.17 16.56 16.56 0 0 1-7.4 1.63ZM875.64 313.23l11.47-54h8.94l-1.17 10.2h.53a40.21 40.21 0 0 1 4.57-5.66 20.26 20.26 0 0 1 5.49-4.06 15 15 0 0 1 6.74-1.51 24.31 24.31 0 0 1 2.76.17 17.38 17.38 0 0 1 2.51.47l-2.49 10.74a19.59 19.59 0 0 0-2.34-.49 17.71 17.71 0 0 0-2.69-.2 12.66 12.66 0 0 0-6 1.52 17.77 17.77 0 0 0-5.13 4.2 26.88 26.88 0 0 0-4 6.27 37.89 37.89 0 0 0-2.59 7.79l-5.18 24.61ZM959.72 314.21a14.6 14.6 0 0 1-7.59-2 13.81 13.81 0 0 1-5.4-6.22 25.55 25.55 0 0 1-2-10.87 51.55 51.55 0 0 1 1.15-10.91 47.15 47.15 0 0 1 3.34-10.06 34.64 34.64 0 0 1 5.37-8.3 24 24 0 0 1 7.21-5.61 19.2 19.2 0 0 1 8.76-2 13.62 13.62 0 0 1 6 1.22 13.08 13.08 0 0 1 4.2 3.22 22.48 22.48 0 0 1 2.88 4.35h.44c.09-.85.22-1.93.36-3.25s.33-2.75.56-4.29.51-3.06.83-4.52l3.76-17.68h11.38l-16.11 76h-8.94l1.08-8.74h-.35a35.84 35.84 0 0 1-4.66 4.93 20.62 20.62 0 0 1-5.54 3.49 17.05 17.05 0 0 1-6.73 1.24Zm4.44-9.33a9 9 0 0 0 4.42-1.17 14.9 14.9 0 0 0 4-3.25 27.52 27.52 0 0 0 3.34-4.78 37 37 0 0 0 2.59-5.79 41.44 41.44 0 0 0 1.66-6.25 34 34 0 0 0 .59-6.15 11.23 11.23 0 0 0-2.18-7.25c-1.45-1.81-3.6-2.71-6.47-2.71a9.28 9.28 0 0 0-5.17 1.56 16.64 16.64 0 0 0-4.35 4.25 28.48 28.48 0 0 0-3.34 6.17 39.46 39.46 0 0 0-2.13 7.45 44.1 44.1 0 0 0-.73 7.91q0 4.93 2 7.47a7 7 0 0 0 5.77 2.54ZM1001.03 313.23l11.47-54h8.94l-1.17 10.2h.53a40.93 40.93 0 0 1 4.57-5.66 20.26 20.26 0 0 1 5.49-4.06 15 15 0 0 1 6.74-1.51 24.31 24.31 0 0 1 2.76.17 17.38 17.38 0 0 1 2.51.47l-2.49 10.74a19.59 19.59 0 0 0-2.34-.49 17.67 17.67 0 0 0-2.68-.2 12.67 12.67 0 0 0-6.06 1.52 17.77 17.77 0 0 0-5.13 4.2 26.88 26.88 0 0 0-4 6.27 37.89 37.89 0 0 0-2.59 7.79l-5.18 24.61ZM1064.65 314.21a23.34 23.34 0 0 1-10.81-2.37 16.56 16.56 0 0 1-7.13-7 23.34 23.34 0 0 1-2.52-11.31 44.64 44.64 0 0 1 1.91-13 37.44 37.44 0 0 1 5.61-11.4 28.16 28.16 0 0 1 9-8.06 24.29 24.29 0 0 1 12.11-3q8.3 0 12.47 3.74a12.62 12.62 0 0 1 4.18 9.88 15.67 15.67 0 0 1-1.91 7.67 16.86 16.86 0 0 1-5.78 6 30.55 30.55 0 0 1-9.82 3.88 62.1 62.1 0 0 1-13.94 1.37h-2.2l-.09 1.49c0 .5-.05 1-.05 1.49q0 5.41 2.83 8.52t8.25 3.1a26.39 26.39 0 0 0 7.57-1 52.68 52.68 0 0 0 7.76-3.07v9a43.32 43.32 0 0 1-8 3 38 38 0 0 1-9.44 1.07Zm-7.37-31.84h1.66a41 41 0 0 0 10.35-1.15 15.22 15.22 0 0 0 6.79-3.42 7.36 7.36 0 0 0 2.39-5.54 5.1 5.1 0 0 0-1.59-4 6.81 6.81 0 0 0-4.71-1.44 11.23 11.23 0 0 0-6 1.88 18.42 18.42 0 0 0-5.33 5.37 25.74 25.74 0 0 0-3.56 8.3ZM1111.87 314.21a14.48 14.48 0 0 1-7.55-2 13.93 13.93 0 0 1-5.39-6.25 25.1 25.1 0 0 1-2-10.77 51.06 51.06 0 0 1 1.19-11 47.66 47.66 0 0 1 3.42-10.06 35 35 0 0 1 5.4-8.28 23.94 23.94 0 0 1 7.17-5.61 18.89 18.89 0 0 1 8.65-2 14.73 14.73 0 0 1 6.15 1.2 13.18 13.18 0 0 1 4.44 3.2 17.28 17.28 0 0 1 2.93 4.44h.44l2.93-7.81h8.79l-11.47 54h-8.74l1.07-8.74h-.39a33.65 33.65 0 0 1-4.66 4.88 21.78 21.78 0 0 1-5.64 3.52 16.92 16.92 0 0 1-6.74 1.28Zm4.2-9.33a10.17 10.17 0 0 0 6.54-2.56 24 24 0 0 0 5.54-6.82 34.37 34.37 0 0 0 3.59-9.32 35.69 35.69 0 0 0 .81-4.64c.14-1.47.22-2.93.22-4.39a10.43 10.43 0 0 0-2.25-6.94 7.59 7.59 0 0 0-6.15-2.68 9.44 9.44 0 0 0-5.1 1.51 15.9 15.9 0 0 0-4.37 4.17 29.16 29.16 0 0 0-3.4 6.13 37.5 37.5 0 0 0-2.19 7.45 42.71 42.71 0 0 0-.76 8.08q0 4.93 2 7.47a6.61 6.61 0 0 0 5.56 2.54ZM1152.64 313.23l11.47-54h8.94l-1.17 10.2h.49a36.42 36.42 0 0 1 4.42-5.44 21.54 21.54 0 0 1 5.71-4.18 15.82 15.82 0 0 1 7.2-1.61q5.67 0 8.67 3.13a14.82 14.82 0 0 1 3.73 8.54h.39a33.84 33.84 0 0 1 4.67-5.76 22.4 22.4 0 0 1 6-4.27 16.42 16.42 0 0 1 7.3-1.64q6.54 0 9.91 3.81t3.37 10.64a35.59 35.59 0 0 1-.26 4.2 42.38 42.38 0 0 1-.81 4.45l-6.74 32h-11.42l7-32.81c.26-1.27.46-2.42.61-3.45a21.48 21.48 0 0 0 .22-2.9 7.12 7.12 0 0 0-1.49-4.86 5.73 5.73 0 0 0-4.52-1.68 9.44 9.44 0 0 0-5 1.51 17.51 17.51 0 0 0-4.67 4.39 31.93 31.93 0 0 0-3.9 7 51.05 51.05 0 0 0-2.79 9.21l-5 23.63h-11.37l6.88-32.72a35.08 35.08 0 0 0 .64-3.51 22.28 22.28 0 0 0 .19-2.74 7.82 7.82 0 0 0-1.39-5 5.32 5.32 0 0 0-4.42-1.73 9.59 9.59 0 0 0-5 1.51 17.19 17.19 0 0 0-4.69 4.44 33.61 33.61 0 0 0-4 7.11 52.27 52.27 0 0 0-2.88 9.54l-4.88 23.1ZM1261.48 337.25a23.73 23.73 0 0 1-4.08-.34 25.7 25.7 0 0 1-3.34-.78v-9.39a18.8 18.8 0 0 0 2.8.81 14.25 14.25 0 0 0 2.81.27 6.94 6.94 0 0 0 5.45-2.42 16.35 16.35 0 0 0 3.19-7.35l10.6-50.19h-8.64l1.07-5.28 9.43-3.56 1-4.64a36.3 36.3 0 0 1 2.76-8.37 17.72 17.72 0 0 1 4-5.45 14.11 14.11 0 0 1 5.37-2.95 24.47 24.47 0 0 1 6.91-.9 26.57 26.57 0 0 1 5.64.58 22.57 22.57 0 0 1 4.72 1.52l-3 8.59a27.58 27.58 0 0 0-3-1 13.61 13.61 0 0 0-3.56-.44 7.27 7.27 0 0 0-5.52 2.15c-1.37 1.44-2.38 3.73-3 6.89l-.88 4.2h11.09l-1.76 8.69h-11.18l-10.94 51.76a35.07 35.07 0 0 1-3.31 9.09 16.18 16.18 0 0 1-5.69 6.23 16.5 16.5 0 0 1-8.94 2.28ZM1318.46 314.21a14.94 14.94 0 0 1-7.4-1.71 11.15 11.15 0 0 1-4.64-5 17.68 17.68 0 0 1-1.58-7.79 34.53 34.53 0 0 1 .31-4.42c.22-1.61.48-3.28.81-5l6.64-31.15h11.43l-7 32.81c-.22 1.27-.41 2.42-.56 3.44a21.07 21.07 0 0 0-.22 2.81 7.17 7.17 0 0 0 1.54 5 6.23 6.23 0 0 0 4.81 1.68 11 11 0 0 0 6.86-2.66 24.62 24.62 0 0 0 6.08-7.74 45.92 45.92 0 0 0 4.25-12.26l4.88-23H1356l-11.43 54h-9l1.17-10.25h-.49a36.1 36.1 0 0 1-4.54 5.44 22 22 0 0 1-5.86 4.17 16.48 16.48 0 0 1-7.39 1.63ZM1360.7 313.23l16.16-76h11.38l-16.12 76ZM1382.28 337.25a23.73 23.73 0 0 1-4.08-.34 25.7 25.7 0 0 1-3.34-.78v-9.39a18.8 18.8 0 0 0 2.8.81 14.32 14.32 0 0 0 2.81.27 6.94 6.94 0 0 0 5.45-2.42 16.35 16.35 0 0 0 3.19-7.35l10.6-50.19h-8.6l1.07-5.28 9.43-3.56 1-4.64a36.3 36.3 0 0 1 2.76-8.37 17.72 17.72 0 0 1 4-5.45 14.08 14.08 0 0 1 5.38-2.95 24.34 24.34 0 0 1 6.9-.9 26.57 26.57 0 0 1 5.64.58 22.57 22.57 0 0 1 4.72 1.52l-3 8.59a26.88 26.88 0 0 0-3-1 13.61 13.61 0 0 0-3.56-.44 7.29 7.29 0 0 0-5.52 2.15c-1.37 1.44-2.38 3.73-3 6.89l-.88 4.2h11.09l-1.76 8.69h-11.27l-11 51.74a35.07 35.07 0 0 1-3.25 9.15 16.18 16.18 0 0 1-5.69 6.23 16.5 16.5 0 0 1-8.89 2.24Zm40.18-24 11.48-54h11.42l-11.47 54Zm19.73-62.16a7 7 0 0 1-4.25-1.24 4.53 4.53 0 0 1-1.71-3.93 8.44 8.44 0 0 1 .86-3.91 6 6 0 0 1 2.49-2.56 7.93 7.93 0 0 1 3.93-.91 6.76 6.76 0 0 1 4.15 1.2 4.46 4.46 0 0 1 1.61 3.83 7.72 7.72 0 0 1-1.9 5.47 6.72 6.72 0 0 1-5.18 2.03ZM1449.91 313.23l16.16-76h11.37l-16.11 76ZM1477.4 313.23l16.16-76h11.38l-16.12 76ZM1504.94 313.23l11.47-54h8.94l-1.18 10.2h.49a36.42 36.42 0 0 1 4.42-5.44 21.71 21.71 0 0 1 5.71-4.18 15.89 15.89 0 0 1 7.21-1.61q5.65 0 8.66 3.13a14.83 14.83 0 0 1 3.74 8.54h.39a33.78 33.78 0 0 1 4.66-5.76 22.61 22.61 0 0 1 6-4.27 16.39 16.39 0 0 1 7.3-1.64q6.54 0 9.91 3.81t3.37 10.64a33.62 33.62 0 0 1-.27 4.2 42.38 42.38 0 0 1-.81 4.45l-6.73 32h-11.43l7-32.81c.26-1.27.47-2.42.61-3.45a20 20 0 0 0 .22-2.9 7.07 7.07 0 0 0-1.49-4.86 5.72 5.72 0 0 0-4.51-1.68 9.47 9.47 0 0 0-5 1.51 17.48 17.48 0 0 0-4.66 4.39 31.54 31.54 0 0 0-3.91 7 51.07 51.07 0 0 0-2.78 9.21l-5 23.63h-11.38l6.89-32.72q.43-1.95.63-3.51a22.48 22.48 0 0 0 .2-2.74 7.88 7.88 0 0 0-1.39-5 5.33 5.33 0 0 0-4.42-1.73 9.56 9.56 0 0 0-5 1.51 17.05 17.05 0 0 0-4.69 4.44 33.62 33.62 0 0 0-4 7.11 52.27 52.27 0 0 0-2.88 9.54l-4.88 23.1ZM1616.56 314.21a23.38 23.38 0 0 1-10.82-2.37 16.62 16.62 0 0 1-7.13-7 23.46 23.46 0 0 1-2.51-11.31 44.63 44.63 0 0 1 1.9-13 37.23 37.23 0 0 1 5.62-11.4 28 28 0 0 1 9-8.06 24.32 24.32 0 0 1 12.11-3q8.3 0 12.47 3.74a12.59 12.59 0 0 1 4.18 9.88 15.66 15.66 0 0 1-1.9 7.67 16.81 16.81 0 0 1-5.79 6 30.55 30.55 0 0 1-9.82 3.88 62.1 62.1 0 0 1-13.94 1.37h-2.19c0 .49-.07 1-.1 1.49s0 1 0 1.49q0 5.41 2.83 8.52t8.25 3.1a26.34 26.34 0 0 0 7.57-1 53.19 53.19 0 0 0 7.77-3.07v9a43.86 43.86 0 0 1-8 3 38 38 0 0 1-9.5 1.07Zm-7.38-31.84h1.66a41 41 0 0 0 10.35-1.15 15.17 15.17 0 0 0 6.79-3.42 7.32 7.32 0 0 0 2.39-5.54 5.1 5.1 0 0 0-1.58-4 6.81 6.81 0 0 0-4.71-1.44 11.29 11.29 0 0 0-6.06 1.88 18.28 18.28 0 0 0-5.32 5.37 25.75 25.75 0 0 0-3.52 8.3ZM1646.34 313.23l11.52-54.2h9.25l-1.17 10.21h.29a36.85 36.85 0 0 1 4.55-5.45 21.81 21.81 0 0 1 5.88-4.17 16.55 16.55 0 0 1 7.4-1.62 15.32 15.32 0 0 1 7.61 1.76 11.36 11.36 0 0 1 4.74 5 17.58 17.58 0 0 1 1.61 7.81 29.82 29.82 0 0 1-.32 4.28c-.21 1.51-.48 3-.8 4.42l-6.79 31.93h-11.67l6.94-32.86c.29-1.27.51-2.41.65-3.42a19.26 19.26 0 0 0 .22-2.83 6.68 6.68 0 0 0-1.58-4.84 6.35 6.35 0 0 0-4.71-1.61 10.77 10.77 0 0 0-6.74 2.64 24 24 0 0 0-6 7.67 47.23 47.23 0 0 0-4.25 12.15l-4.88 23.1ZM1722.27 314.21a16 16 0 0 1-9.6-2.67q-3.68-2.65-3.68-9.35a25.84 25.84 0 0 1 .17-2.9q.17-1.59.51-3.3l6-28.12h-7.81l1.07-5.47 9.23-3.76 6.15-11.43h7.18l-2.54 12h13.77l-1.86 8.69h-13.75l-6 28.17c-.17.69-.3 1.41-.42 2.17a14.87 14.87 0 0 0-.17 2.08 4.66 4.66 0 0 0 1.22 3.42 5.07 5.07 0 0 0 3.71 1.22 17 17 0 0 0 3.67-.39 34.35 34.35 0 0 0 3.85-1.13v8.65a24.93 24.93 0 0 1-4.68 1.49 26.94 26.94 0 0 1-6.02.63ZM1781.94 337.25q-9.82 0-15.31-3.63a11.52 11.52 0 0 1-5.49-10.14 12.49 12.49 0 0 1 3.44-8.79q3.43-3.71 10.91-6.2a7.11 7.11 0 0 1-2.78-2.58 7 7 0 0 1-.93-3.62 8.21 8.21 0 0 1 2.32-5.83 23 23 0 0 1 7-4.67 13.87 13.87 0 0 1-4.89-5.1 14.89 14.89 0 0 1-1.7-7.3 24.26 24.26 0 0 1 1.6-8.65 18.84 18.84 0 0 1 4.42-6.69 19.52 19.52 0 0 1 6.84-4.3 24.92 24.92 0 0 1 8.88-1.51 28.44 28.44 0 0 1 3.91.27 30.05 30.05 0 0 1 3.86.8h18.65l-1.42 6.5-9.57 1.56a10.47 10.47 0 0 1 1.15 3.13 18.21 18.21 0 0 1 .37 3.8 22.47 22.47 0 0 1-1.54 8.48 18.09 18.09 0 0 1-11 10.49 26.93 26.93 0 0 1-8.81 1.44 23.61 23.61 0 0 1-2.49-.12 18 18 0 0 1-2-.31 10.51 10.51 0 0 0-4.15 2.27 4 4 0 0 0-1.37 2.9 2.77 2.77 0 0 0 .78 2 4.77 4.77 0 0 0 2 1 22.14 22.14 0 0 0 3.27.61l6.25.78a31.41 31.41 0 0 1 9.11 2.3 11.55 11.55 0 0 1 5.23 4.32 12.51 12.51 0 0 1 1.68 6.71 18.25 18.25 0 0 1-2.22 9.18 17.63 17.63 0 0 1-6.47 6.45 28.87 28.87 0 0 1-8.5 3.27 49.71 49.71 0 0 1-11.03 1.18Zm.58-8a34.23 34.23 0 0 0 7.5-.73 16.15 16.15 0 0 0 5.39-2.15 9.37 9.37 0 0 0 3.13-3.17 8.38 8.38 0 0 0 1.07-4.25 5.18 5.18 0 0 0-.31-1.88 4.18 4.18 0 0 0-1-1.44 7.73 7.73 0 0 0-3.22-1.81 28.85 28.85 0 0 0-5.13-1l-7.22-.78a20.45 20.45 0 0 0-6.33 2.1 10.33 10.33 0 0 0-3.85 3.44 8.23 8.23 0 0 0-1.3 4.56 5.9 5.9 0 0 0 2.83 5.25q2.88 1.9 8.44 1.9Zm9.48-42a8.81 8.81 0 0 0 5.71-1.93 12.45 12.45 0 0 0 3.69-5.17 19.5 19.5 0 0 0 1.29-7.25 10.39 10.39 0 0 0-.46-3.23 5.39 5.39 0 0 0-1.4-2.24 5.05 5.05 0 0 0-2.07-1.32 8.63 8.63 0 0 0-2.86-.44 9.08 9.08 0 0 0-4.47 1.1 10.2 10.2 0 0 0-3.36 3 14.5 14.5 0 0 0-2.15 4.51 19.58 19.58 0 0 0-.76 5.57 10.21 10.21 0 0 0 .32 2.64 6.34 6.34 0 0 0 1 2.05c1.06 1.87 2.91 2.76 5.52 2.76ZM1838.82 314.21a14.42 14.42 0 0 1-7.54-2 14 14 0 0 1-5.4-6.25 25.25 25.25 0 0 1-2-10.77 50.45 50.45 0 0 1 1.2-11 47.09 47.09 0 0 1 3.41-10.06 35.32 35.32 0 0 1 5.4-8.28 24.11 24.11 0 0 1 7.18-5.61 18.88 18.88 0 0 1 8.64-2 14.7 14.7 0 0 1 6.15 1.2 13.32 13.32 0 0 1 4.45 3.2 17.54 17.54 0 0 1 2.93 4.44h.44l2.93-7.81h8.78l-11.47 54h-8.74l1.07-8.74h-.39a33.65 33.65 0 0 1-4.66 4.88 21.78 21.78 0 0 1-5.64 3.52 16.92 16.92 0 0 1-6.74 1.28Zm4.2-9.33a10.17 10.17 0 0 0 6.54-2.56 24.06 24.06 0 0 0 5.55-6.82 38 38 0 0 0 4.39-14 43.16 43.16 0 0 0 .22-4.39 10.43 10.43 0 0 0-2.25-6.94 7.57 7.57 0 0 0-6.15-2.68 9.44 9.44 0 0 0-5.1 1.51 16 16 0 0 0-4.37 4.17 29.6 29.6 0 0 0-3.39 6.13 36.86 36.86 0 0 0-2.2 7.45 42.71 42.71 0 0 0-.76 8.08q0 4.93 2 7.47a6.62 6.62 0 0 0 5.52 2.58ZM1896.29 314.21a15.94 15.94 0 0 1-9.59-2.67q-3.69-2.65-3.69-9.35a28.45 28.45 0 0 1 .17-2.9q.18-1.59.51-3.3l6-28.12h-7.81l1.07-5.47 9.23-3.76 6.15-11.43h7.18l-2.54 12h13.77l-1.85 8.69h-13.78l-6 28.17c-.16.69-.3 1.41-.41 2.17a13.6 13.6 0 0 0-.18 2.08 4.62 4.62 0 0 0 1.23 3.42 5.05 5.05 0 0 0 3.71 1.22 16.83 16.83 0 0 0 3.66-.39 34.47 34.47 0 0 0 3.86-1.13v8.65a25.06 25.06 0 0 1-4.69 1.49 26.81 26.81 0 0 1-6 .63ZM1939.41 314.21a23.38 23.38 0 0 1-10.82-2.37 16.67 16.67 0 0 1-7.13-7 23.46 23.46 0 0 1-2.51-11.31 44.63 44.63 0 0 1 1.9-13 37.23 37.23 0 0 1 5.62-11.4 28 28 0 0 1 9-8.06 24.34 24.34 0 0 1 12.11-3q8.3 0 12.48 3.74a12.62 12.62 0 0 1 4.17 9.88 15.66 15.66 0 0 1-1.9 7.67 16.81 16.81 0 0 1-5.79 6 30.58 30.58 0 0 1-9.81 3.88 62.22 62.22 0 0 1-13.94 1.37h-2.2c0 .49-.07 1-.1 1.49s0 1 0 1.49c0 3.61.95 6.45 2.83 8.52s4.64 3.1 8.26 3.1a26.32 26.32 0 0 0 7.56-1 52.76 52.76 0 0 0 7.77-3.07v9a43.86 43.86 0 0 1-8 3 38 38 0 0 1-9.5 1.07Zm-7.38-31.84h1.66a41.07 41.07 0 0 0 10.36-1.15 15.13 15.13 0 0 0 6.78-3.42 7.33 7.33 0 0 0 2.4-5.54 5.1 5.1 0 0 0-1.59-4 6.81 6.81 0 0 0-4.71-1.44 11.29 11.29 0 0 0-6.06 1.88 18.4 18.4 0 0 0-5.32 5.37 26 26 0 0 0-3.52 8.3ZM1975.35 313.23l-2.4-54h10.84l.54 26.85c.06 3.09.06 6 0 8.74s-.2 5.34-.39 7.81h.39q.74-2.23 1.81-5.12c.71-1.92 1.44-3.76 2.17-5.52s1.33-3.14 1.78-4.15l13-28.61h12.35l1 27.88c0 2.37.06 4.91.07 7.61s0 5.34-.22 7.91h.44q.78-2.34 1.86-5.39c.71-2 1.49-4.12 2.32-6.25s1.63-4.11 2.41-5.93l11.53-25.83h11.81l-25.39 54h-12.89l-1-27.74c-.07-1.52-.09-3.18-.08-5s.05-3.62.1-5.51.09-3.73.12-5.52h-.48c-.56 1.59-1.15 3.23-1.79 4.91s-1.29 3.36-2 5-1.42 3.39-2.2 5.08l-13 28.71ZM2061.82 314.21a14.42 14.42 0 0 1-7.54-2 13.89 13.89 0 0 1-5.4-6.25 25.25 25.25 0 0 1-2-10.77 51.06 51.06 0 0 1 1.19-11 47.66 47.66 0 0 1 3.42-10.06 35 35 0 0 1 5.4-8.28 24 24 0 0 1 7.18-5.61 18.85 18.85 0 0 1 8.64-2 14.73 14.73 0 0 1 6.15 1.2 13.18 13.18 0 0 1 4.44 3.2 17 17 0 0 1 2.93 4.44h.44l2.93-7.81h8.79l-11.47 54h-8.74l1.07-8.74h-.39a33.65 33.65 0 0 1-4.66 4.88 21.78 21.78 0 0 1-5.64 3.52 16.92 16.92 0 0 1-6.74 1.28Zm4.2-9.33a10.17 10.17 0 0 0 6.54-2.56 23.87 23.87 0 0 0 5.54-6.82 34.05 34.05 0 0 0 3.59-9.32 35.69 35.69 0 0 0 .81-4.64 43.16 43.16 0 0 0 .22-4.39 10.43 10.43 0 0 0-2.25-6.94 7.59 7.59 0 0 0-6.15-2.68 9.44 9.44 0 0 0-5.1 1.51 16 16 0 0 0-4.37 4.17 29.16 29.16 0 0 0-3.4 6.13 37.5 37.5 0 0 0-2.19 7.45 42.71 42.71 0 0 0-.76 8.08q0 4.93 2 7.47a6.62 6.62 0 0 0 5.52 2.54ZM2098.98 337.25a22.82 22.82 0 0 1-4.08-.29 29 29 0 0 1-2.9-.68v-9.13c.87.19 1.8.36 2.78.51a22.74 22.74 0 0 0 3.22.22 10.62 10.62 0 0 0 7.3-2.61 26.31 26.31 0 0 0 5.45-7.21l2.49-4.54-8.11-54.34h11.33l3.22 26.36q.34 2.75.56 5.86c.15 2.09.25 4.1.32 6s.1 3.58.1 4.91h.34c.45-1.11 1-2.51 1.71-4.2s1.45-3.5 2.29-5.42 1.7-3.71 2.54-5.37l14.36-28.17h12.35l-33.74 62.59a42 42 0 0 1-6 8.65 21.19 21.19 0 0 1-7 5.15 20.93 20.93 0 0 1-8.53 1.71Z"/><path class="b" d="M537.3 131.13h-48.19v67.76h-38.89v-170c0-10.92 8.68-20.44 19.6-20.44h64.68c40.32 0 61.32 21.56 61.32 61.32 0 37.56-20.44 61.36-58.52 61.36Zm-9.8-34.44c19.6.28 29.4-9 29.4-27.44s-9.24-27.72-27.44-27.72H489.7v55.21ZM613.17 122.45c1.12-47.88 26.6-71.68 76.16-71.68h5.32v38.64h-12.6c-20.72 0-31.08 10.92-31.08 32.48v77h-37.8ZM736.93 8.49c12.32 0 18.2 6.16 17.92 18.2v10.92h-37.24V8.49Zm0 42.28c12 0 17.92 5.88 17.92 17.92v130.2h-37.24V50.74ZM813.65 104.25v94.64h-37.8v-87.08c0-42.28 21.28-63.28 63.56-63.28 19 0 33.6 4.2 44.24 12.6 10.64-8.12 25.2-12 44.24-12 42.28 0 63.28 21 63 63.28v87.08h-19.32c-12.32-.84-18.48-6.72-18.48-18.48v-76.16c-.84-15.4-9.24-23-25.76-23s-24.92 7.56-25.2 23v94.08h-37.52v-94.64c-.84-15.4-9.24-23-25.76-23s-24.92 7.56-25.2 22.96ZM1078.52 202.25c-44.8-1.4-67.2-27.44-67.2-77.84s22.68-75.6 67.76-75.88c47 0 69.16 28.84 66.36 86.8h-95.76c1.4 22.68 11.2 34.16 29.4 34.16 8.68 0 16.8-3.64 24.08-10.64a16.31 16.31 0 0 1 12.6-5.32h27.44c-8.09 31.36-28.28 48.72-64.68 48.72Zm-28.28-93.51h55.72c-2.24-19.6-11.48-29.68-27.44-29.68s-25.48 10.07-28.28 29.68ZM1200.6 104.25v94.64h-37.8v-87.08c0-42.28 21.28-63.28 63.56-63.28 19 0 33.6 4.2 44.24 12.6 10.64-8.12 25.2-12 44.24-12 42.28 0 63.28 21 63 63.28v87.08h-19.32c-12.32-.84-18.48-6.72-18.48-18.48v-76.16c-.84-15.4-9.24-23-25.76-23s-24.92 7.56-25.2 23v94.08h-37.52v-94.64c-.84-15.4-9.24-23-25.76-23s-24.92 7.56-25.2 22.96ZM1437.76 89.41h-37.24c4.48-27.44 23.8-40.88 58-40.88 40.88 0 61.6 13.44 62.44 40.88v50.4c0 40.88-24.64 59.08-64.68 61.88-35.56 2.8-60.2-13.72-60.2-46.48.84-35.56 26.6-45.08 64.12-48.72 16-2 24.08-6.72 24.08-14.84-.84-8.4-8.68-12.6-24.08-12.6-13.2 0-20.48 3.36-22.44 10.36Zm47 48.72v-13.72a161.28 161.28 0 0 1-29.68 9c-14.84 2.8-22.4 9.8-22.4 20.72.84 11.76 7 17.36 18.76 17.36 20.76-.04 33.36-12.36 33.36-33.36ZM1585.59 77.37h-3.92v82c0 6.16 3.64 9.52 10.92 9.52h11.52v28.28a204.59 204.59 0 0 1-39.2-.28c-14-1.4-20.72-10.08-20.44-26.6V8.49h19.32c9.8 0 17.92 9 17.92 18.76v23.49h22.4v8.12a18.12 18.12 0 0 1-18.52 18.51ZM1619.75 122.45c1.12-47.88 26.6-71.68 76.16-71.68h5.32v38.64h-12.6c-20.72 0-31.08 10.92-31.08 32.48v77h-37.8ZM1743.51 8.49c12.31 0 18.19 6.16 17.92 18.2v10.92h-37.24V8.49Zm0 42.28c12 0 17.92 5.88 17.92 17.92v130.2h-37.24V50.74ZM1820.22 104.25v94.64h-37.8v-87.08c0-42.28 21.28-63.28 63.56-63.28 19 0 33.6 4.2 44.24 12.6 10.64-8.12 25.2-12 44.24-12 42.28 0 63.28 21 63 63.28v87.08h-19.35c-12.32-.84-18.48-6.72-18.48-18.48v-76.16c-.84-15.4-9.24-23-25.76-23s-24.92 7.56-25.2 23v94.08h-37.52v-94.64c-.84-15.4-9.24-23-25.76-23s-24.89 7.56-25.17 22.96ZM2152.58 125.53c0 51-22.68 76.72-67.48 76.72s-67.2-25.76-67.2-76.72c0-51.52 22.4-77 67.2-77s67.48 25.48 67.48 77Zm-96.88 0c.28 28.84 10.08 43.4 29.12 43.4s28.56-15.12 28.84-44.52c0-28.84-9.52-43.12-28.56-43.12-19.6 0-29.4 14.84-29.4 44.24ZM2277.73 198.89c-12.32-.84-18.48-6.72-18.48-18.48v-76.16c-.84-15.4-9.24-23-25.76-23s-24.92 7.56-25.2 23v94.64h-37.8v-87.08c0-42.28 21.29-63.28 63.56-63.28s63 21 62.72 63.28v87.08ZM2333.73 225.21c20.44 0 27.72-10.08 21.84-29.68l-50.4-144.79h42.28l29.4 102.76 25.76-89.6c2.24-8.68 8.12-13.16 17.64-13.16h26l-58.52 173.32c-9 24.36-17.92 32.76-48.72 32.76-9.52 0-14.56-.28-15.68-1.12v-30.52Z"/><path class="c" d="M299.74 109.97a7.21 7.21 0 0 1-7-5.72c-1.53-7.34-5-15.2-8.7-23.52-8.33-18.78-17.76-40.06-5.6-61A36 36 0 0 1 314.51.25c14.78 1.66 25.15 13.17 29.95 25.12a46.22 46.22 0 0 1 6.77-.5c12.73 0 23.77 5.22 30.29 14.32a36.07 36.07 0 0 1 .61 41c-11.91 20.57-35 23-55.44 25.25-9 1-17.55 1.89-24.69 4.22a7.37 7.37 0 0 1-2.23.35Zm10.81-95.6a21.81 21.81 0 0 0-19.44 12.11c-8.72 15.06-1.53 31.27 6.08 48.43a198 198 0 0 1 7.68 19.11 194.09 194.09 0 0 1 20.32-2.9c18.66-2 36.28-3.9 44.79-18.57a22.16 22.16 0 0 0-.12-25c-3.78-5.28-10.58-8.31-18.62-8.31a31.83 31.83 0 0 0-9.47 1.44 7.18 7.18 0 0 1-9.17-5.29c-2-9.21-9.07-19.66-19.69-20.86a20.06 20.06 0 0 0-2.32-.14ZM88.47 160.23a7.24 7.24 0 0 1-2.24-.36c-7.14-2.34-15.69-3.26-24.74-4.23-20.39-2.19-43.52-4.66-55.64-25.65a35.9 35.9 0 0 1 .87-40.56c6.52-9.11 17.57-14.32 30.3-14.32a46.08 46.08 0 0 1 6.76.49c4.81-11.94 15.18-23.45 30-25.11a36.28 36.28 0 0 1 36.31 19.92c11.89 20.56 2.46 41.86-5.86 60.65-3.68 8.29-7.15 16.13-8.69 23.47a7.18 7.18 0 0 1-7 5.7ZM37.02 89.47c-8 0-14.83 3-18.63 8.32a22 22 0 0 0-.36 24.6c8.73 15.09 26.35 17 45 19a198.13 198.13 0 0 1 20.39 2.91 197.6 197.6 0 0 1 7.64-19c7.62-17.19 14.8-33.42 6.32-48.08a21.86 21.86 0 0 0-22-12.4c-10.63 1.19-17.66 11.64-19.7 20.85a7.16 7.16 0 0 1-9.17 5.29 31.77 31.77 0 0 0-9.46-1.44ZM253.68 310.19a127.32 127.32 0 0 1-21.27-1.79 7.181 7.181 0 1 1 2.4-14.16 113.43 113.43 0 0 0 117.14-168.73 7.18 7.18 0 1 1 12.42-7.21 127.79 127.79 0 0 1-110.69 191.89ZM204.27 299.56a7.14 7.14 0 0 1-2.94-.63c-56.54-25.45-87.06-89.83-71-149.73 14.72-54.86 66.62-94.62 123.46-94.62a7.25 7.25 0 0 1 7.37 7.19 7.18 7.18 0 0 1-7.18 7.17h-.19c-50.46 0-96.52 35.28-109.59 84-14.27 53.19 12.82 110.33 63 132.93a7.18 7.18 0 0 1-2.94 13.73Z"/><path class="c" d="M133.33 360.21a124.71 124.71 0 0 1-59.24-14.9c-30-16.07-52.65-44.48-62.14-77.92-9.63-33.9-5.4-69 11.9-98.85a7.18 7.18 0 0 1 12.42 7.21c-15.33 26.45-19.06 57.6-10.51 87.72s28.13 54.72 55.11 69.19 58.13 17.11 87.91 7.58c29.45-9.42 54-30.35 67.4-57.42 13.54-27.39 15.16-58.73 4.6-88.24-10.46-29.15-32.25-53-59.79-65.38a7.19 7.19 0 0 1 5.91-13.1c31.06 14 55.64 40.85 67.4 73.64 11.9 33.21 10 68.53-5.24 99.45-15.1 30.54-42.75 54.13-75.89 64.74a130.74 130.74 0 0 1-39.85 6.29ZM154.62 120.9a6.94 6.94 0 0 1-1.2-.1 92.2 92.2 0 0 0-19.18-1.6 7.18 7.18 0 0 1-7.18-7.17 7 7 0 0 1 7.43-7.19 128.44 128.44 0 0 1 21.35 1.79 7.19 7.19 0 0 1-1.2 14.27Z"/><path class="c" d="M134.34 331.74q-3.23 0-6.46-.21a99.55 99.55 0 0 1-82.13-54.63c-15.75-31.5-13.16-70.68 6.62-99.8a99.49 99.49 0 0 1 88.62-43.3 7.2 7.2 0 0 1 6.69 7.64 7.28 7.28 0 0 1-7.64 6.69 84.94 84.94 0 0 0-75.79 37 84.74 84.74 0 0 0 64.58 132 84.91 84.91 0 0 0 75.78-37c23.95-35.3 17.17-84.56-15.43-112.16a7.196 7.196 0 1 1 9.28-11c38.12 32.28 46 89.9 18 131.19a99.63 99.63 0 0 1-82.15 43.5Z"/><path class="c" d="M278.8 278a7.18 7.18 0 0 1-1.95-14.08 84.732 84.732 0 1 0-49.74-162c-28.37 9.39-50.52 34.43-56.42 63.81-7.89 39.27 14.21 80.2 51.41 95.2a7.18 7.18 0 1 1-5.37 13.32c-43.5-17.54-69.35-65.41-60.12-111.35a99.11 99.11 0 0 1 163.86-53.86c26.49 24.06 38.11 62.06 29.59 96.8a99.35 99.35 0 0 1-69.3 71.85 7 7 0 0 1-2 .27Z"/></svg>